<svg id="Layer_1" xmlns="http://www.w3.org/2000/svg" width="12" height="12" viewBox="0 0 12 12"><style>.st0{fill:#EB4335;} .st1{fill:#FBBC05;} .st2{fill:#34A853;} .st3{fill:#4285F4;}</style><path class="st0" d="M6 2c.8 0 1.6.3 2.3.7l1.4-1.4C8.7.5 7.4 0 6 0 3.8 0 1.9 1.2.9 2.9l.5 1.3 1 .2C3 3 4.4 2 6 2z"/><path class="st1" d="M2 6c0-.6.1-1.1.4-1.6L.9 2.9C.3 3.8 0 4.9 0 6c0 1 .2 1.9.6 2.7l1.5.3.1-1.6C2.1 7 2 6.5 2 6z"/><path class="st2" d="M8.8 8.8C8.1 9.5 7.1 10 6 10c-1.7 0-3.2-1.1-3.7-2.6L.6 8.7c1 2 3 3.3 5.4 3.3 1.7 0 3.2-.7 4.2-1.8L10 9l-1.2-.2z"/><path class="st3" d="M6 7h3.9c-.2.7-.6 1.3-1 1.8l1.4 1.4c1-1 1.7-2.5 1.7-4.2V5H6v2z"/></svg>