<svg xmlns="http://www.w3.org/2000/svg" xmlns:xlink="http://www.w3.org/1999/xlink" width="16" height="64">
  <defs>
  <symbol id="a">
  <path d="M10 6v-.2l2-1.6-1.2-2.1-2.4.7c-.2-.1-.4-.3-.7-.4l-.5-2.4h-2.4l-.5 2.4c-.3.1-.5.2-.7.4l-2.4-.7-1.2 2.1 2 1.7v.3l-2 1.6 1.2 2.1 2.4-.7c.2.1.4.3.7.4l.5 2.4h2.5l.5-2.4c.2-.1.4-.2.6-.4l2.4.7 1.2-2.1-2-1.7v-.1zm-2 0c0 1.1-.9 2-2 2s-2-.9-2-2 .9-2 2-2 2 .9 2 2z"/>
  </symbol>
  </defs>
  <use xlink:href="#a" x="2" y="2" fill="#81938a" />
  <use xlink:href="#a" x="2" y="18" fill="#fff" />
  <use xlink:href="#a" x="2" y="34" fill="#adbabe" />
  <use xlink:href="#a" x="2" y="50" fill="#64787e" />
</svg>
